<?xml version="1.0" encoding="UTF-8"?>
<svg id="Layer_1" data-name="Layer 1" xmlns="http://www.w3.org/2000/svg" viewBox="0 0 159.14 67.99">
  <defs>
    <style>
      .cls-1 {
        stroke-dasharray: 0 0 .87 1.73;
      }

      .cls-1, .cls-2, .cls-3, .cls-4, .cls-5, .cls-6 {
        fill: none;
        stroke: #f37046;
        stroke-miterlimit: 10;
      }

      .cls-1, .cls-2, .cls-4, .cls-5, .cls-6 {
        stroke-linecap: round;
        stroke-width: .85px;
      }

      .cls-2 {
        stroke-dasharray: 0 0 .87 1.74;
      }

      .cls-7 {
        fill: #f37046;
      }

      .cls-3 {
        stroke-width: 1.7px;
      }

      .cls-4 {
        stroke-dasharray: 0 0 .87 1.74;
      }

      .cls-6 {
        stroke-dasharray: 0 0 .85 1.7;
      }
    </style>
  </defs>
  <g>
    <path class="cls-7" d="m16.97,60.38c0,.61-.08,1.15-.23,1.64-.15.49-.36.91-.61,1.29-.25.37-.55.69-.89.95s-.69.47-1.05.64c-.36.17-.73.29-1.11.37-.38.08-.73.12-1.06.12H.14v-3.08h11.88c.59,0,1.05-.17,1.38-.52s.49-.81.49-1.4c0-.28-.04-.54-.13-.78s-.21-.44-.37-.62c-.16-.17-.36-.31-.59-.4-.23-.09-.49-.14-.78-.14h-7.08c-.5,0-1.03-.09-1.61-.27s-1.11-.46-1.6-.86c-.49-.39-.9-.91-1.23-1.55-.33-.64-.49-1.42-.49-2.34s.16-1.7.49-2.34.74-1.15,1.23-1.55c.49-.4,1.03-.69,1.6-.86s1.11-.27,1.61-.27h10.48v3.08H4.94c-.58,0-1.04.18-1.37.53-.33.36-.49.83-.49,1.41s.16,1.06.49,1.4c.33.34.78.51,1.37.51h7.1c.33,0,.68.05,1.05.14.37.08.74.21,1.11.38.37.17.72.39,1.05.66.33.26.63.58.88.95.26.37.46.8.61,1.28.15.48.22,1.03.22,1.63Z"/>
    <path class="cls-7" d="m31.58,65.38h-8.35c-.43,0-.89-.08-1.4-.23-.5-.15-.97-.4-1.4-.74-.43-.34-.79-.79-1.08-1.34-.29-.55-.43-1.22-.43-2.02v-4.17c0-.29.03-.6.1-.92s.17-.65.31-.97c.14-.32.33-.63.55-.92.23-.29.5-.55.82-.77.32-.22.69-.4,1.11-.53s.89-.2,1.42-.2h8.35v3.08h-8.35c-.4,0-.71.1-.92.31-.21.21-.31.52-.31.95v4.14c0,.4.11.71.32.92.21.21.52.32.94.32h8.32v3.08Z"/>
    <path class="cls-7" d="m47.95,61.05c0,.53-.07,1-.2,1.43-.13.42-.31.79-.53,1.11-.22.32-.48.59-.77.82-.29.22-.6.41-.92.55-.32.14-.64.25-.97.31-.33.07-.64.1-.93.1h-5.55c-.43,0-.89-.08-1.4-.23-.5-.15-.97-.4-1.4-.74-.43-.34-.79-.79-1.08-1.34-.29-.55-.43-1.22-.43-2.02v-4.17c0-.79.14-1.46.43-2.01s.65-.99,1.08-1.34c.43-.34.9-.59,1.4-.74.51-.15.97-.23,1.4-.23h5.55c.79,0,1.46.14,2.01.43s1,.64,1.34,1.07.59.9.74,1.4c.15.51.23.98.23,1.41v4.17Zm-3.08-4.14c0-.43-.11-.74-.32-.95-.21-.21-.52-.31-.92-.31h-5.53c-.41,0-.72.1-.94.31-.21.21-.32.52-.32.92v4.17c0,.4.11.71.32.92.21.21.52.32.94.32h5.53c.42,0,.73-.11.94-.32.21-.21.31-.52.31-.92v-4.14Z"/>
    <path class="cls-7" d="m61.77,55.65h-6.93c-.42,0-.73.1-.95.31-.21.21-.32.52-.32.92v8.49h-3.08v-8.49c0-.53.07-1,.2-1.42s.31-.79.54-1.11c.22-.32.48-.59.78-.82.29-.23.6-.41.92-.55s.64-.25.97-.31c.33-.07.63-.1.92-.1h6.95v3.08Z"/>
    <path class="cls-7" d="m77.52,56.81c0,.43-.08.89-.23,1.38s-.39.95-.73,1.37c-.34.42-.77.78-1.31,1.06-.54.28-1.2.43-1.97.43h-5.55v-2.92h5.55c.42,0,.74-.13.97-.38.23-.26.34-.57.34-.95,0-.4-.13-.72-.38-.95-.26-.23-.57-.34-.93-.34h-5.55c-.42,0-.74.13-.97.38-.23.26-.34.57-.34.95v4.3c0,.41.13.73.38.96.26.23.57.34.95.34h5.53v2.94h-5.55c-.43,0-.89-.08-1.38-.23-.49-.15-.95-.39-1.37-.73-.42-.34-.78-.77-1.06-1.31s-.43-1.2-.43-1.97v-4.32c0-.43.07-.89.23-1.38.15-.49.39-.95.73-1.37s.77-.78,1.31-1.06c.54-.28,1.2-.43,1.97-.43h5.55c.43,0,.89.08,1.38.23s.95.39,1.37.73c.42.34.78.77,1.06,1.31.28.54.43,1.2.43,1.97Z"/>
    <path class="cls-7" d="m97.76,58.51c0,.79-.11,1.53-.31,2.23-.21.7-.5,1.33-.89,1.9s-.85,1.07-1.39,1.49c-.54.43-1.14.76-1.8,1.01l3.6,2.85h-4.46l-2.96-2.38h-3.03c-1.02,0-1.96-.18-2.83-.53-.87-.35-1.62-.84-2.25-1.47-.63-.63-1.13-1.38-1.49-2.25-.36-.87-.54-1.82-.54-2.85v-3.24c0-1.03.18-1.98.54-2.85.36-.87.85-1.62,1.49-2.25.63-.63,1.38-1.12,2.25-1.47.87-.35,1.81-.53,2.83-.53h4.17c1.02,0,1.96.18,2.82.53.86.36,1.61.85,2.24,1.47.63.63,1.12,1.38,1.48,2.25s.53,1.82.53,2.85v3.24Zm-3.08-3.24c0-.61-.1-1.16-.29-1.65-.19-.49-.46-.92-.82-1.27-.35-.35-.77-.62-1.27-.82-.49-.19-1.04-.29-1.63-.29h-4.17c-.6,0-1.15.1-1.64.29-.49.19-.92.47-1.27.82-.36.35-.63.77-.82,1.27-.19.49-.29,1.04-.29,1.65v3.24c0,.61.1,1.16.29,1.65.19.49.47.92.82,1.27.35.35.78.62,1.27.82.49.19,1.04.29,1.64.29h4.14c.6,0,1.15-.1,1.64-.29s.92-.47,1.27-.82c.36-.35.63-.77.82-1.27.19-.49.29-1.04.29-1.65v-3.24Z"/>
    <path class="cls-7" d="m114.45,63.82c0,.22-.04.43-.12.62-.08.19-.19.35-.33.49s-.3.25-.49.33c-.19.08-.38.12-.6.12h-6.96c-.38,0-.78-.04-1.21-.13-.43-.09-.85-.23-1.27-.42-.42-.19-.82-.44-1.21-.73s-.73-.66-1.02-1.08-.53-.91-.7-1.46c-.18-.55-.27-1.18-.27-1.87v-7.1h3.08v7.1c0,.4.07.76.21,1.08.14.32.33.59.56.82.24.23.51.4.83.53.32.12.66.18,1.04.18h5.39v-9.72h3.08v11.25Z"/>
    <path class="cls-7" d="m131.11,56.81c0,.43-.08.89-.22,1.38-.15.49-.39.95-.73,1.37-.33.42-.77.78-1.31,1.06-.54.28-1.2.43-1.97.43h-5.55v-2.92h5.55c.42,0,.74-.13.97-.38.23-.26.34-.57.34-.95,0-.4-.13-.72-.38-.95-.26-.23-.57-.34-.93-.34h-5.55c-.42,0-.74.13-.97.38-.23.26-.34.57-.34.95v4.3c0,.41.13.73.38.96.26.23.57.34.95.34h5.53v2.94h-5.55c-.43,0-.89-.08-1.38-.23-.49-.15-.95-.39-1.37-.73-.42-.34-.78-.77-1.06-1.31s-.43-1.2-.43-1.97v-4.32c0-.43.08-.89.23-1.38.15-.49.39-.95.73-1.37.33-.42.77-.78,1.31-1.06.54-.28,1.2-.43,1.97-.43h5.55c.43,0,.89.08,1.38.23s.95.39,1.37.73c.42.34.78.77,1.06,1.31.28.54.43,1.2.43,1.97Z"/>
    <path class="cls-7" d="m145.56,61.05c0,.53-.07,1-.2,1.43-.13.42-.31.79-.53,1.11-.22.32-.48.59-.77.82-.29.22-.6.41-.92.55-.32.14-.64.25-.97.31-.33.07-.64.1-.93.1h-8.34v-3.08h8.31c.42,0,.73-.11.95-.32s.32-.52.32-.92c-.04-.82-.45-1.23-1.24-1.23h-4.77c-.68,0-1.25-.12-1.73-.35-.47-.24-.86-.53-1.16-.89-.3-.36-.51-.74-.64-1.15-.13-.41-.2-.79-.2-1.15,0-.69.12-1.26.37-1.73.25-.47.55-.85.92-1.14s.77-.5,1.21-.63c.43-.13.84-.2,1.22-.2h7.57v3.08h-7.54c-.16,0-.28.02-.37.05-.09.04-.16.08-.2.14-.04.06-.07.12-.08.19,0,.07-.01.13-.01.2,0,.13.03.23.07.3.04.07.09.12.15.15.06.03.13.05.2.05.08,0,.15,0,.22,0h4.77c.79,0,1.46.14,2.01.43s1,.64,1.34,1.07c.34.43.59.9.74,1.4.15.51.23.98.23,1.41Z"/>
    <path class="cls-7" d="m159.14,55.65h-5.38v9.72h-3.11v-9.72h-4v-3.08h4v-4.18h3.11v4.18h5.38v3.08Z"/>
  </g>
  <g>
    <ellipse class="cls-3" cx="79.57" cy="23.39" rx="21.94" ry="22.54"/>
    <path class="cls-3" d="m79.57,45.94c1.92-2.05,7.95-9.03,8.82-19.88,1.12-14.12-7.4-23.68-8.82-25.21"/>
    <g>
      <path class="cls-5" d="m74.78,45.4c.09-.08.19-.18.31-.29"/>
      <path class="cls-4" d="m76.32,43.89c2.68-2.85,7.38-8.97,8.14-17.94,1.04-12.23-6-20.81-8.7-23.64"/>
      <path class="cls-5" d="m75.14,1.69c-.13-.13-.23-.22-.31-.29"/>
    </g>
    <g>
      <path class="cls-5" d="m71.49,43.54c.08-.06.19-.15.33-.27"/>
      <path class="cls-1" d="m73.09,42.11c2.75-2.68,7.83-8.84,8.07-18.02.29-10.95-6.53-18.05-9.21-20.41"/>
      <path class="cls-5" d="m71.29,3.12c-.15-.12-.27-.21-.33-.26"/>
    </g>
    <g>
      <path class="cls-5" d="m85.89,44.96c.08-.11.15-.23.23-.35"/>
      <path class="cls-6" d="m87.02,43.18c2.09-3.49,5-9.6,5.44-17.67.6-10.9-3.63-19.06-5.84-22.62"/>
      <path class="cls-5" d="m86.16,2.17c-.08-.13-.16-.24-.23-.35"/>
    </g>
    <g>
      <path class="cls-5" d="m91.39,42.25c.06-.12.12-.25.18-.38"/>
      <path class="cls-2" d="m92.28,40.29c1.56-3.66,3.42-9.42,3.49-16.65.08-8.06-2.1-14.36-3.72-18.02"/>
      <path class="cls-5" d="m91.7,4.82c-.06-.13-.12-.26-.18-.38"/>
    </g>
  </g>
</svg>